
<svg version="1.1" id="Layer_1" xmlns="http://www.w3.org/2000/svg" xmlns:xlink="http://www.w3.org/1999/xlink" x="0px" y="0px"
	 width="100%" viewBox="0 0 256 256" enable-background="new 0 0 256 256" xml:space="preserve">
<path fill="#070707" opacity="1.000000" stroke="none" 
	d="
M155.000000,257.000000 
	C132.645767,257.000000 110.291542,257.000000 87.534134,256.663086 
	C88.354561,254.783691 89.446396,253.110733 90.823265,251.720001 
	C99.360100,243.097183 107.987991,234.564377 116.503090,225.920349 
	C117.463005,224.945877 118.373001,223.472137 118.399498,222.210876 
	C118.413544,221.541794 116.564568,220.478302 115.409126,220.195587 
	C105.291405,217.719971 95.140366,215.380478 84.750320,212.751099 
	C76.333916,207.335007 68.166405,202.168457 59.829258,196.716171 
	C55.442825,191.949112 51.226028,187.467789 46.913635,182.656876 
	C43.546928,176.217606 40.275818,170.107925 37.002621,163.584137 
	C36.851109,161.863419 36.920300,160.485168 36.519169,159.261063 
	C31.262758,143.220093 31.782549,127.131920 36.012611,110.612846 
	C39.488354,102.952950 42.460938,95.394493 46.552055,88.499741 
	C49.128174,84.158203 53.379341,80.810585 56.941326,77.481033 
	C57.009922,87.436142 57.010067,96.927322 57.025108,106.418488 
	C57.033321,111.601364 59.601257,114.330734 64.893341,114.374008 
	C76.048866,114.465210 87.206078,114.456566 98.361771,114.375351 
	C103.795357,114.335800 106.493210,111.445969 106.495399,106.037971 
	C106.497726,100.285004 104.124649,97.728523 98.572121,97.542854 
	C97.075027,97.492790 95.489380,97.822655 94.101845,97.426552 
	C92.811966,97.058327 91.125099,96.178429 90.731979,95.111504 
	C90.346497,94.065300 90.955994,92.005417 91.852722,91.251778 
	C94.881653,88.706184 98.088707,86.303574 101.482506,84.272049 
	C127.315086,68.808594 160.583893,77.145836 176.692581,103.471649 
	C180.153839,109.128235 181.835251,115.956039 183.833191,122.400383 
	C185.485779,127.730835 188.198853,129.852448 194.502106,129.852127 
	C198.718872,129.851898 201.234390,127.570869 201.820328,123.882820 
	C202.328354,120.685303 202.089737,117.173409 201.331345,114.003799 
	C197.756561,99.063576 190.209503,86.617462 178.398193,76.498924 
	C159.520554,60.326805 137.644302,56.487911 113.979721,60.048386 
	C101.787056,61.882843 91.042641,67.539154 81.351006,75.144691 
	C77.681496,78.024338 76.141296,77.084564 74.478416,72.649796 
	C73.623558,70.369965 70.896805,68.792046 69.025589,66.585419 
	C69.039276,65.858391 69.043327,65.442863 69.334137,64.848007 
	C70.886230,63.875294 72.112724,63.010090 73.423660,62.301010 
	C78.953865,59.309753 85.485977,57.385952 89.861130,53.200207 
	C100.413933,43.104259 112.124702,35.425716 126.382118,30.923008 
	C137.904404,28.194860 149.029190,25.630169 160.625885,27.907171 
	C164.018402,28.573292 167.523270,28.667099 171.256897,29.252556 
	C177.173813,31.722111 182.898453,33.767899 188.419052,36.264820 
	C192.743256,38.220627 196.814743,40.735161 201.177979,43.282658 
	C210.805069,50.973827 219.249695,59.281109 225.154175,70.311371 
	C229.592178,80.954727 233.879776,91.282143 238.451843,102.294731 
	C240.369049,100.650909 242.071060,99.226418 243.734711,97.758438 
	C248.165283,93.848946 252.579361,89.920753 257.000000,86.000000 
	C257.000000,108.354225 257.000000,130.708450 256.662903,153.596222 
	C255.252045,154.885132 254.039948,155.501968 253.124557,156.415970 
	C221.542648,187.949677 189.970947,219.493698 158.484177,251.122269 
	C156.926468,252.686981 156.143646,255.023087 155.000000,257.000000 
M188.529266,190.528580 
	C189.489883,190.771332 190.439926,191.164703 191.412796,191.233093 
	C199.374207,191.792725 201.978271,189.375488 201.977112,181.525116 
	C201.975632,171.532669 201.984390,161.540207 201.974045,151.547775 
	C201.968903,146.597137 199.446732,143.695938 194.569473,143.641144 
	C183.079636,143.512100 171.586395,143.516388 160.096466,143.642441 
	C155.127151,143.696945 152.503265,146.801605 152.505066,152.007492 
	C152.506973,157.508698 154.856445,160.186142 159.977127,160.449966 
	C161.472198,160.527008 163.063873,160.158585 164.448318,160.558472 
	C165.886536,160.973877 167.852631,161.817230 168.249466,162.944565 
	C168.641953,164.059540 167.772171,166.252258 166.739761,167.116074 
	C163.706253,169.654175 160.473923,172.042023 157.041290,174.001450 
	C135.679062,186.195572 109.873642,182.954544 91.931389,166.322510 
	C82.654617,157.723175 77.232079,147.347931 74.667885,135.035385 
	C74.129814,132.451721 70.975021,129.440048 68.352654,128.495911 
	C64.601509,127.145393 59.690575,127.682625 58.019287,132.038361 
	C56.742790,135.365204 56.709587,139.641235 57.480263,143.201294 
	C61.206383,160.413681 69.941887,174.865662 84.500633,184.815170 
	C109.849724,202.138870 136.813446,204.359818 164.645126,190.879272 
	C169.075043,188.733582 173.048798,185.626144 177.169724,182.868134 
	C181.398331,180.038055 183.020523,180.728455 184.450211,185.496750 
	C184.966843,187.219849 186.664627,188.588791 188.529266,190.528580 
z"/>
<path fill="#010101" opacity="1.000000" stroke="none" 
	d="
M155.468658,257.000000 
	C156.143646,255.023087 156.926468,252.686981 158.484177,251.122269 
	C189.970947,219.493698 221.542648,187.949677 253.124557,156.415970 
	C254.039948,155.501968 255.252045,154.885132 256.662903,154.064880 
	C257.000000,188.259903 257.000000,222.519821 257.000000,257.000000 
	C223.312759,257.000000 189.625031,257.000000 155.468658,257.000000 
z"/>
<path fill="#1E1E1E" opacity="1.000000" stroke="none" 
	d="
M1.000001,102.000000 
	C1.000000,84.645775 1.000000,67.291542 1.344315,49.374466 
	C2.126349,48.149803 2.742676,47.545250 2.975835,46.817871 
	C9.972765,24.989834 24.431154,10.556699 46.044651,3.127259 
	C47.143654,2.749487 48.019989,1.723943 49.000000,1.000000 
	C66.354225,1.000000 83.708458,1.000000 101.465973,1.336942 
	C100.763252,3.098830 99.795532,4.661837 98.530975,5.928507 
	C67.645142,36.866096 36.737217,67.781685 5.784271,98.652092 
	C4.426779,100.005966 2.605335,100.894638 1.000001,102.000000 
z"/>
<path fill="#1B1B1B" opacity="1.000000" stroke="none" 
	d="
M1.000001,102.468658 
	C2.605335,100.894638 4.426779,100.005966 5.784271,98.652092 
	C36.737217,67.781685 67.645142,36.866096 98.530975,5.928507 
	C99.795532,4.661837 100.763252,3.098830 101.934631,1.336942 
	C110.354233,1.000000 118.708466,1.000000 127.513680,1.361149 
	C125.756500,4.534803 123.817001,7.618397 121.296791,10.116036 
	C104.309296,26.951416 87.169914,43.633621 70.204208,60.490723 
	C69.254074,61.434769 69.407562,63.489548 69.047379,65.027344 
	C69.043327,65.442863 69.039276,65.858391 68.636459,66.542915 
	C60.371387,64.878769 57.286316,67.650558 56.879082,77.017097 
	C53.379341,80.810585 49.128174,84.158203 46.552055,88.499741 
	C42.460938,95.394493 39.488354,102.952950 35.678112,110.718872 
	C34.356972,112.876610 33.320225,114.506104 32.461540,116.224579 
	C30.997669,119.154228 30.264917,122.717743 28.136093,124.998657 
	C20.219501,133.480850 11.875577,141.565399 3.634590,149.741302 
	C2.982236,150.388504 1.888573,150.590897 1.000000,151.000000 
	C1.000000,134.979111 1.000000,118.958214 1.000001,102.468658 
z"/>
<path fill="#0D0D0D" opacity="1.000000" stroke="none" 
	d="
M59.998894,197.001892 
	C68.166405,202.168457 76.333916,207.335007 84.844727,213.075699 
	C88.472687,216.471100 87.955002,218.784454 84.898743,221.730270 
	C75.223000,231.056335 65.740746,240.589310 56.403370,250.254517 
	C54.732132,251.984436 54.107738,254.725693 53.000000,257.000000 
	C51.933331,257.000000 50.866661,257.000000 49.287506,256.666687 
	C47.961769,255.847305 47.200241,255.222870 46.327274,254.896606 
	C37.461296,251.583115 28.892714,247.764069 22.273800,240.790924 
	C25.208721,239.041611 28.284317,237.958267 30.438343,235.907135 
	C38.516079,228.215210 46.161442,220.069443 54.233768,212.371582 
	C58.758144,208.057083 63.318062,204.104004 59.998894,197.001892 
z"/>
<path fill="#161616" opacity="1.000000" stroke="none" 
	d="
M1.000000,151.468658 
	C1.888573,150.590897 2.982236,150.388504 3.634590,149.741302 
	C11.875577,141.565399 20.219501,133.480850 28.136093,124.998657 
	C30.264917,122.717743 30.997669,119.154228 32.461540,116.224579 
	C33.320225,114.506104 34.356972,112.876610 35.648125,111.101059 
	C31.782549,127.131920 31.262758,143.220093 36.519169,159.261063 
	C36.920300,160.485168 36.851109,161.863419 36.760841,163.814911 
	C35.166245,166.320587 34.019260,168.386108 32.422016,170.008270 
	C23.371786,179.199707 14.239235,188.310776 5.059563,197.373093 
	C3.936490,198.481812 2.364143,199.135468 1.000000,200.000000 
	C1.000000,183.979111 1.000000,167.958206 1.000000,151.468658 
z"/>
<path fill="#121212" opacity="1.000000" stroke="none" 
	d="
M200.998520,43.001457 
	C196.814743,40.735161 192.743256,38.220627 188.419052,36.264820 
	C182.898453,33.767899 177.173813,31.722111 171.548080,29.079786 
	C180.401413,20.211180 189.256134,11.757416 198.056030,3.246986 
	C198.592896,2.727765 198.695404,1.759392 199.000000,1.000000 
	C202.030594,1.000000 205.061188,1.000000 208.656372,1.336641 
	C210.664566,2.349993 212.163284,2.930456 213.542435,3.719823 
	C220.050385,7.444725 226.525620,11.226817 232.841248,15.275173 
	C224.370682,23.948179 216.181503,32.449257 207.671890,40.616455 
	C206.116837,42.108925 203.256378,42.241264 200.998520,43.001457 
z"/>
<path fill="#090909" opacity="1.000000" stroke="none" 
	d="
M53.468658,257.000000 
	C54.107738,254.725693 54.732132,251.984436 56.403370,250.254517 
	C65.740746,240.589310 75.223000,231.056335 84.898743,221.730270 
	C87.955002,218.784454 88.472687,216.471100 85.093613,213.325226 
	C95.140366,215.380478 105.291405,217.719971 115.409126,220.195587 
	C116.564568,220.478302 118.413544,221.541794 118.399498,222.210876 
	C118.373001,223.472137 117.463005,224.945877 116.503090,225.920349 
	C107.987991,234.564377 99.360100,243.097183 90.823265,251.720001 
	C89.446396,253.110733 88.354561,254.783691 87.065475,256.663086 
	C75.979103,257.000000 64.958214,257.000000 53.468658,257.000000 
z"/>
<path fill="#131313" opacity="1.000000" stroke="none" 
	d="
M1.000000,200.449982 
	C2.364143,199.135468 3.936490,198.481812 5.059563,197.373093 
	C14.239235,188.310776 23.371786,179.199707 32.422016,170.008270 
	C34.019260,168.386108 35.166245,166.320587 36.762932,164.229034 
	C40.275818,170.107925 43.546928,176.217606 46.910694,183.068115 
	C45.935280,186.439407 45.515568,189.690231 43.691124,191.596985 
	C33.812733,201.921127 23.612093,211.938324 13.448192,221.986099 
	C12.201318,223.218704 10.510341,224.002075 8.869964,224.679581 
	C7.470634,221.890701 6.225518,219.416382 4.982671,216.940918 
	C3.653995,214.294510 2.327467,211.647018 1.000000,209.000000 
	C1.000000,206.299988 1.000000,203.599976 1.000000,200.449982 
z"/>
<path fill="#1A1A1A" opacity="1.000000" stroke="none" 
	d="
M69.334137,64.848007 
	C69.407562,63.489548 69.254074,61.434769 70.204208,60.490723 
	C87.169914,43.633621 104.309296,26.951416 121.296791,10.116036 
	C123.817001,7.618397 125.756500,4.534803 127.982330,1.361149 
	C137.020889,1.000000 146.041794,1.000000 155.513672,1.361147 
	C155.803345,2.360024 155.854172,3.226660 155.449463,3.601750 
	C146.997955,11.434486 138.487793,19.203873 130.009033,27.007315 
	C128.623871,28.282139 127.332542,29.658888 125.997849,30.988527 
	C112.124702,35.425716 100.413933,43.104259 89.861130,53.200207 
	C85.485977,57.385952 78.953865,59.309753 73.423660,62.301010 
	C72.112724,63.010090 70.886230,63.875294 69.334137,64.848007 
z"/>
<path fill="#161616" opacity="1.000000" stroke="none" 
	d="
M126.382118,30.923008 
	C127.332542,29.658888 128.623871,28.282139 130.009033,27.007315 
	C138.487793,19.203873 146.997955,11.434486 155.449463,3.601750 
	C155.854172,3.226660 155.803345,2.360024 155.982330,1.361147 
	C170.020889,1.000000 184.041794,1.000000 198.531342,1.000000 
	C198.695404,1.759392 198.592896,2.727765 198.056030,3.246986 
	C189.256134,11.757416 180.401413,20.211180 171.267853,28.850452 
	C167.523270,28.667099 164.018402,28.573292 160.625885,27.907171 
	C149.029190,25.630169 137.904404,28.194860 126.382118,30.923008 
z"/>
<path fill="#0A0A0A" opacity="1.000000" stroke="none" 
	d="
M257.000000,85.531342 
	C252.579361,89.920753 248.165283,93.848946 243.734711,97.758438 
	C242.071060,99.226418 240.369049,100.650909 238.451843,102.294731 
	C233.879776,91.282143 229.592178,80.954727 225.521698,70.332184 
	C230.129181,72.693687 233.055771,70.809677 236.237137,67.422829 
	C242.235779,61.036743 248.723602,55.110157 255.340073,48.994926 
	C256.114716,48.998188 256.557343,48.999096 257.000000,49.000000 
	C257.000000,61.020893 257.000000,73.041786 257.000000,85.531342 
z"/>
<path fill="#000000" opacity="1.000000" stroke="none" 
	d="
M1.000000,209.468658 
	C2.327467,211.647018 3.653995,214.294510 4.982671,216.940918 
	C6.225518,219.416382 7.470634,221.890701 9.008977,224.991455 
	C13.532594,230.749115 17.761982,235.880829 21.991367,241.012558 
	C28.892714,247.764069 37.461296,251.583115 46.327274,254.896606 
	C47.200241,255.222870 47.961769,255.847305 48.887512,256.666687 
	C33.073269,257.000000 17.146536,257.000000 1.000000,257.000000 
	C1.000000,241.313126 1.000000,225.625214 1.000000,209.468658 
z"/>
<path fill="#000000" opacity="1.000000" stroke="none" 
	d="
M257.000000,48.531342 
	C256.557343,48.999096 256.114716,48.998188 255.331131,48.598049 
	C251.783432,41.148338 249.241669,33.678493 245.148148,27.187204 
	C242.162537,22.452770 237.131638,19.008135 233.012512,14.988516 
	C226.525620,11.226817 220.050385,7.444725 213.542435,3.719823 
	C212.163284,2.930456 210.664566,2.349993 209.110474,1.336641 
	C224.926727,1.000000 240.853455,1.000000 257.000000,1.000000 
	C257.000000,16.686876 257.000000,32.374779 257.000000,48.531342 
z"/>
<path fill="#000000" opacity="1.000000" stroke="none" 
	d="
M48.531342,1.000000 
	C48.019989,1.723943 47.143654,2.749487 46.044651,3.127259 
	C24.431154,10.556699 9.972765,24.989834 2.975835,46.817871 
	C2.742676,47.545250 2.126349,48.149803 1.344315,48.905807 
	C1.000000,33.073269 1.000000,17.146536 1.000000,1.000000 
	C16.686876,1.000000 32.374779,1.000000 48.531342,1.000000 
z"/>
<path fill="#C3C3C3" opacity="1.000000" stroke="none" 
	d="
M56.941322,77.481033 
	C57.286316,67.650558 60.371387,64.878769 68.626816,66.854431 
	C70.896805,68.792046 73.623558,70.369965 74.478416,72.649796 
	C76.141296,77.084564 77.681496,78.024338 81.351006,75.144691 
	C91.042641,67.539154 101.787056,61.882843 113.979721,60.048386 
	C137.644302,56.487911 159.520554,60.326805 178.398193,76.498924 
	C190.209503,86.617462 197.756561,99.063576 201.331345,114.003799 
	C202.089737,117.173409 202.328354,120.685303 201.820328,123.882820 
	C201.234390,127.570869 198.718872,129.851898 194.502106,129.852127 
	C188.198853,129.852448 185.485779,127.730835 183.833191,122.400383 
	C181.835251,115.956039 180.153839,109.128235 176.692581,103.471649 
	C160.583893,77.145836 127.315086,68.808594 101.482506,84.272049 
	C98.088707,86.303574 94.881653,88.706184 91.852722,91.251778 
	C90.955994,92.005417 90.346497,94.065300 90.731979,95.111504 
	C91.125099,96.178429 92.811966,97.058327 94.101845,97.426552 
	C95.489380,97.822655 97.075027,97.492790 98.572121,97.542854 
	C104.124649,97.728523 106.497726,100.285004 106.495399,106.037971 
	C106.493210,111.445969 103.795357,114.335800 98.361771,114.375351 
	C87.206078,114.456566 76.048866,114.465210 64.893341,114.374008 
	C59.601257,114.330734 57.033321,111.601364 57.025108,106.418488 
	C57.010067,96.927322 57.009922,87.436142 56.941322,77.481033 
z"/>
<path fill="#C3C3C3" opacity="1.000000" stroke="none" 
	d="
M188.176346,190.323959 
	C186.664627,188.588791 184.966843,187.219849 184.450211,185.496750 
	C183.020523,180.728455 181.398331,180.038055 177.169724,182.868134 
	C173.048798,185.626144 169.075043,188.733582 164.645126,190.879272 
	C136.813446,204.359818 109.849724,202.138870 84.500633,184.815170 
	C69.941887,174.865662 61.206383,160.413681 57.480263,143.201294 
	C56.709587,139.641235 56.742790,135.365204 58.019287,132.038361 
	C59.690575,127.682625 64.601509,127.145393 68.352654,128.495911 
	C70.975021,129.440048 74.129814,132.451721 74.667885,135.035385 
	C77.232079,147.347931 82.654617,157.723175 91.931389,166.322510 
	C109.873642,182.954544 135.679062,186.195572 157.041290,174.001450 
	C160.473923,172.042023 163.706253,169.654175 166.739761,167.116074 
	C167.772171,166.252258 168.641953,164.059540 168.249466,162.944565 
	C167.852631,161.817230 165.886536,160.973877 164.448318,160.558472 
	C163.063873,160.158585 161.472198,160.527008 159.977127,160.449966 
	C154.856445,160.186142 152.506973,157.508698 152.505066,152.007492 
	C152.503265,146.801605 155.127151,143.696945 160.096466,143.642441 
	C171.586395,143.516388 183.079636,143.512100 194.569473,143.641144 
	C199.446732,143.695938 201.968903,146.597137 201.974045,151.547775 
	C201.984390,161.540207 201.975632,171.532669 201.977112,181.525116 
	C201.978271,189.375488 199.374207,191.792725 191.412796,191.233093 
	C190.439926,191.164703 189.489883,190.771332 188.176346,190.323959 
z"/>
<path fill="#0E0E0E" opacity="1.000000" stroke="none" 
	d="
M232.841248,15.275173 
	C237.131638,19.008135 242.162537,22.452770 245.148148,27.187204 
	C249.241669,33.678493 251.783432,41.148338 254.999146,48.595695 
	C248.723602,55.110157 242.235779,61.036743 236.237137,67.422829 
	C233.055771,70.809677 230.129181,72.693687 225.371307,70.016235 
	C219.249695,59.281109 210.805069,50.973827 201.177979,43.282654 
	C203.256378,42.241264 206.116837,42.108925 207.671890,40.616455 
	C216.181503,32.449257 224.370682,23.948179 232.841248,15.275173 
z"/>
<path fill="#101010" opacity="1.000000" stroke="none" 
	d="
M22.273804,240.790924 
	C17.761982,235.880829 13.532594,230.749115 9.164192,225.305511 
	C10.510341,224.002075 12.201318,223.218704 13.448192,221.986099 
	C23.612093,211.938324 33.812733,201.921127 43.691124,191.596985 
	C45.515568,189.690231 45.935280,186.439407 47.006287,183.397705 
	C51.226028,187.467789 55.442825,191.949112 59.829262,196.716156 
	C63.318062,204.104004 58.758144,208.057083 54.233768,212.371582 
	C46.161442,220.069443 38.516079,228.215210 30.438343,235.907135 
	C28.284317,237.958267 25.208721,239.041611 22.273804,240.790924 
z"/>
</svg>